<svg version="1.1" id="Layer_1" xmlns="http://www.w3.org/2000/svg" xmlns:xlink="http://www.w3.org/1999/xlink" x="0px" y="0px" width="100%" viewBox="0 0 1280 1280" enable-background="new 0 0 1280 1280" xml:space="preserve">

<path fill="#FBFBFB" opacity="1.000000" stroke="none" d="
M383.000000,642.062073 
	C360.881592,642.062073 339.263184,642.062073 317.325439,642.062073 
	C317.325439,661.206238 317.325439,679.810242 317.325439,698.752869 
	C309.777435,698.752869 302.541656,698.752869 295.011597,698.752869 
	C295.011597,653.443604 295.011597,608.038757 295.011597,562.371582 
	C302.321564,562.371582 309.548126,562.371582 317.230042,562.371582 
	C317.230042,581.284668 317.230042,600.056458 317.230042,619.057678 
	C379.272552,619.057678 440.861847,619.057678 502.894257,619.057678 
	C502.894257,600.164734 502.894257,581.410583 502.894257,562.387939 
	C510.571838,562.387939 517.809143,562.387939 525.346313,562.387939 
	C525.346313,607.944824 525.346313,653.345398 525.346313,698.926147 
	C517.929321,698.926147 510.794067,698.926147 503.211182,698.926147 
	C503.211182,680.231934 503.211182,661.494324 503.211182,642.062073 
	C463.012512,642.062073 423.256256,642.062073 383.000000,642.062073 
z" data-index="1"></path>
<path fill="#FCFCFC" opacity="1.000000" stroke="none" d="
M616.999756,585.026001 
	C596.850952,585.026001 577.202026,585.026001 557.199280,585.026001 
	C557.199280,577.467773 557.199280,570.079102 557.199280,562.397095 
	C618.241455,562.397095 679.310852,562.397095 740.688843,562.397095 
	C740.688843,569.839661 740.688843,577.222412 740.688843,584.876526 
	C713.963562,584.876526 687.354858,584.876526 660.381653,584.876526 
	C660.381653,615.367065 660.381653,645.592773 660.381653,676.376343 
	C687.012451,676.376343 713.729004,676.376343 740.716675,676.376343 
	C740.716675,684.153870 740.716675,691.378052 740.716675,698.850342 
	C679.509338,698.850342 618.424194,698.850342 557.073853,698.850342 
	C557.073853,691.585022 557.073853,684.335327 557.073853,676.546936 
	C583.731201,676.546936 610.285461,676.546936 637.138916,676.546936 
	C637.138916,645.915955 637.138916,615.818420 637.138916,585.026001 
	C630.671509,585.026001 624.085571,585.026001 616.999756,585.026001 
z" data-index="2"></path>
<path fill="#FBFBFB" opacity="1.000000" stroke="none" d="
M1265.319458,572.827698 
	C1265.321655,594.788574 1257.550293,615.127808 1236.630005,630.869873 
	C1247.459106,638.668884 1255.465942,648.604431 1260.362305,660.941284 
	C1265.203247,673.138123 1265.657349,685.846375 1265.218384,698.889648 
	C1257.664917,698.889648 1250.394287,698.889648 1243.378906,698.889648 
	C1242.689941,691.561646 1242.654907,684.343201 1241.238281,677.406982 
	C1237.059082,656.945251 1220.579468,642.447021 1199.722900,642.235657 
	C1152.425049,641.756348 1105.119019,642.084717 1057.371094,642.084717 
	C1057.371094,660.946411 1057.371094,679.671570 1057.371094,698.750366 
	C1049.574585,698.750366 1042.217773,698.750366 1034.619995,698.750366 
	C1034.619995,653.341003 1034.619995,608.089844 1034.619995,562.475464 
	C1041.995850,562.475464 1049.212646,562.475464 1056.860229,562.475464 
	C1056.860229,581.124939 1056.860229,599.859924 1056.860229,618.967163 
	C1058.843872,619.081726 1060.432373,619.253662 1062.020996,619.253601 
	C1106.999756,619.251526 1151.978760,619.273438 1196.957397,619.199890 
	C1223.304810,619.156799 1242.219971,600.445129 1242.739990,574.063416 
	C1242.815186,570.250916 1242.750366,566.435669 1242.750366,562.371582 
	C1250.369873,562.371582 1257.612793,562.371582 1265.322632,562.371582 
	C1265.322632,565.753357 1265.322632,569.056396 1265.319458,572.827698 
z" data-index="3"></path>
<path fill="#FBFBFB" opacity="1.000000" stroke="none" d="
M794.908936,612.010376 
	C794.908936,641.145142 794.908936,669.782104 794.908936,698.751221 
	C787.256775,698.751221 779.877380,698.751221 772.003052,698.751221 
	C772.003052,696.919067 772.003052,695.137329 772.002991,693.355591 
	C772.002197,663.861511 772.000854,634.367432 772.000854,604.873352 
	C772.000854,578.366516 788.135864,562.146362 814.593628,562.131287 
	C863.417175,562.103394 912.240662,562.095276 961.064209,562.109802 
	C986.575928,562.117371 1002.975891,578.425659 1003.002991,603.820801 
	C1003.036560,635.313538 1003.011047,666.806213 1003.011047,698.693726 
	C995.585510,698.693726 988.205750,698.693726 980.243103,698.693726 
	C980.243103,696.990906 980.243408,695.213135 980.243164,693.435425 
	C980.238586,663.941345 980.246216,634.447266 980.223694,604.953186 
	C980.213196,591.220093 974.123047,585.046448 960.510925,585.040771 
	C912.020630,585.020691 863.528259,585.281921 815.041687,584.858032 
	C803.511780,584.757202 793.520935,592.070374 794.877258,605.016846 
	C795.101746,607.159668 794.908936,609.346252 794.908936,612.010376 
z" data-index="4"></path>
<path fill="#FDFDFD" opacity="1.000000" stroke="none" d="
M151.245514,671.000183 
	C151.245377,680.476135 151.245377,689.452026 151.245377,698.758179 
	C143.856018,698.758179 136.605423,698.758179 128.862167,698.758179 
	C128.862167,661.152771 128.862167,623.445618 128.862167,585.252014 
	C91.334488,585.252014 54.288631,585.252014 16.978622,585.252014 
	C16.978622,577.348938 16.978622,569.932434 16.978622,562.311401 
	C99.012047,562.311401 180.881348,562.311401 262.993744,562.311401 
	C262.993744,569.788513 262.993744,577.075134 262.993744,584.815918 
	C225.973343,584.815918 188.914917,584.815918 151.245651,584.815918 
	C151.245651,613.675598 151.245651,642.087891 151.245514,671.000183 
z" data-index="5"></path>
<path fill="#FBFBFB" opacity="1.000000" stroke="none" d="
M633.626953,511.593658 
	C636.690552,497.255371 646.192078,489.386505 660.506226,489.192932 
	C669.664185,489.069031 678.825562,489.225372 687.984314,489.135773 
	C696.257996,489.054871 700.872742,484.896515 700.819519,477.791534 
	C700.765076,470.524017 695.887695,466.100922 687.673218,466.094482 
	C648.870117,466.064087 610.066956,466.080231 571.263855,466.079803 
	C569.612122,466.079773 567.960388,466.079773 565.985962,466.079773 
	C565.985962,461.093536 565.985962,456.355865 565.985962,451.239075 
	C566.631042,451.163818 567.389038,450.998291 568.147034,450.998108 
	C608.615540,450.987274 649.084045,450.951813 689.552429,451.015839 
	C701.458191,451.034698 710.722168,457.337860 714.398987,467.545624 
	C718.543335,479.051514 715.634033,491.101685 706.896240,498.472534 
	C701.400024,503.108978 694.816956,504.630127 687.859985,504.729492 
	C678.868774,504.857910 669.873840,504.704376 660.881653,504.792877 
	C653.316223,504.867340 649.812378,508.042664 648.604858,515.809998 
	C643.682678,515.809998 638.726501,515.809998 633.305237,515.809998 
	C633.388855,514.451233 633.464172,513.227966 633.626953,511.593658 
z" data-index="6"></path>
<path fill="#ECECEC" opacity="1.000000" stroke="none" d="
M648.829163,536.877502 
	C648.838196,538.962769 648.838196,540.580750 648.838196,542.492920 
	C643.530273,542.492920 638.638062,542.492920 633.428467,542.492920 
	C633.428467,537.520813 633.428467,532.662903 633.428467,527.500488 
	C638.432434,527.500488 643.328491,527.500488 648.820129,527.500488 
	C648.820129,530.560364 648.820129,533.485291 648.829163,536.877502 
z" data-index="7"></path>
</svg>