<svg version="1.1" id="Layer_1" xmlns="http://www.w3.org/2000/svg" xmlns:xlink="http://www.w3.org/1999/xlink" x="0px" y="0px" width="100%" viewBox="0 0 1280 1280" enable-background="new 0 0 1280 1280" xml:space="preserve">

<path fill="#FAFAFA" opacity="1.000000" stroke="none" d="
M1034.393799,677.999512 
	C1034.393799,639.069519 1034.393799,600.639404 1034.393799,562.005432 
	C1042.131714,562.005432 1049.417114,562.005432 1056.991943,562.005432 
	C1056.991943,580.899109 1056.991943,599.687744 1056.991943,618.842896 
	C1059.093628,618.842896 1060.908569,618.843140 1062.723511,618.842834 
	C1107.369141,618.835144 1152.014893,618.837585 1196.660522,618.815796 
	C1222.722168,618.803040 1242.148804,599.802490 1242.724365,573.770752 
	C1242.808594,569.961914 1242.736084,566.149658 1242.736084,562.073120 
	C1250.238770,562.073120 1257.477783,562.073120 1265.053101,562.073120 
	C1267.158936,589.476685 1259.935913,612.958801 1236.549805,630.162170 
	C1260.126709,647.270813 1266.985962,670.957397 1265.065063,698.537354 
	C1257.673462,698.537354 1250.447998,698.537354 1243.093262,698.537354 
	C1242.783936,692.676941 1242.763428,687.025330 1242.141968,681.440613 
	C1239.604004,658.636108 1222.352539,642.102844 1199.419189,641.879272 
	C1152.612915,641.422913 1105.799805,641.671082 1058.989502,641.643494 
	C1058.516357,641.643188 1058.043335,641.839111 1057.143921,642.037415 
	C1057.143921,660.742737 1057.143921,679.494568 1057.143921,698.514832 
	C1049.476685,698.514832 1042.245483,698.514832 1034.393799,698.514832 
	C1034.393799,691.733704 1034.393799,685.116577 1034.393799,677.999512 
z" data-index="1"></path>
<path fill="#FBFBFB" opacity="1.000000" stroke="none" d="
M317.143677,675.000061 
	C317.143677,682.985535 317.143677,690.471069 317.143677,698.373291 
	C309.713867,698.373291 302.498016,698.373291 294.990753,698.373291 
	C294.990753,653.052979 294.990753,607.645386 294.990753,562.009399 
	C302.318695,562.009399 309.551086,562.009399 317.259705,562.009399 
	C317.259705,580.866028 317.259705,599.605469 317.259705,618.593872 
	C379.302155,618.593872 440.870270,618.593872 502.868500,618.593872 
	C502.868500,599.693726 502.868500,580.956421 502.868500,562.002014 
	C510.556396,562.002014 517.816284,562.002014 525.366455,562.002014 
	C525.366455,607.482910 525.366455,652.853027 525.366455,698.505188 
	C517.893799,698.505188 510.671387,698.505188 503.055542,698.505188 
	C503.055542,679.483887 503.055542,660.723511 503.055542,641.782166 
	C441.092102,641.782166 379.521454,641.782166 317.143677,641.782166 
	C317.143677,652.698975 317.143677,663.599548 317.143677,675.000061 
z" data-index="2"></path>
<path fill="#FCFCFC" opacity="1.000000" stroke="none" d="
M562.208923,584.356689 
	C560.263000,584.357483 558.793213,584.357483 557.081421,584.357483 
	C557.081421,576.826721 557.081421,569.565674 557.081421,562.047485 
	C618.178284,562.047485 679.248840,562.047485 740.664673,562.047485 
	C740.664673,569.240784 740.664673,576.627136 740.664673,584.332520 
	C713.974976,584.332520 687.365173,584.332520 660.390625,584.332520 
	C660.390625,614.851318 660.390625,645.058777 660.390625,675.759033 
	C687.107910,675.759033 713.833923,675.759033 740.779541,675.759033 
	C740.779541,683.519592 740.779541,690.791138 740.779541,698.425781 
	C679.679382,698.425781 618.626709,698.425781 557.201294,698.425781 
	C557.201294,691.074585 557.201294,683.706421 557.201294,675.813599 
	C583.858826,675.813599 610.415955,675.813599 637.199341,675.813599 
	C637.199341,645.213440 637.199341,615.133179 637.199341,584.355896 
	C612.206909,584.355896 587.445984,584.355896 562.208923,584.356689 
z" data-index="3"></path>
<path fill="#FCFCFC" opacity="1.000000" stroke="none" d="
M814.035645,561.829529 
	C863.356567,561.826660 912.188904,562.254089 961.008240,561.645264 
	C986.034607,561.333130 1003.562317,579.122620 1003.133057,603.757019 
	C1002.610474,633.743958 1003.010315,663.746948 1003.011169,693.743042 
	C1003.011169,695.215088 1003.011169,696.687073 1003.011169,698.466858 
	C995.401184,698.466858 988.160645,698.466858 980.246033,698.466858 
	C980.246033,696.615234 980.246033,694.847107 980.246033,693.078979 
	C980.245972,663.416199 980.175720,633.753174 980.292542,604.090881 
	C980.323853,596.137085 978.268921,589.445984 970.469666,586.131165 
	C967.518127,584.876770 964.025696,584.415466 960.778198,584.408813 
	C911.951538,584.309143 863.124390,584.441711 814.298035,584.288940 
	C800.586426,584.246033 794.556335,593.577820 794.734619,604.181458 
	C795.230408,633.669312 794.906616,663.170837 794.906555,692.666992 
	C794.906555,694.473755 794.906494,696.280457 794.906494,698.430664 
	C787.285339,698.430664 780.036194,698.430664 772.005127,698.430664 
	C772.005127,696.787964 772.005249,695.043213 772.005188,693.298462 
	C772.004395,663.469055 772.265137,633.636597 771.923523,603.811096 
	C771.626892,577.907959 790.119995,560.723145 814.035645,561.829529 
z" data-index="4"></path>
<path fill="#FFFFFF" opacity="1.000000" stroke="none" d="
M128.661697,693.875854 
	C128.661484,657.260742 128.661484,621.133911 128.661484,584.597046 
	C91.336632,584.597046 54.401276,584.597046 17.094841,584.597046 
	C17.094841,576.959595 17.094841,569.720154 17.094841,562.151367 
	C98.896904,562.151367 180.784058,562.151367 262.969025,562.151367 
	C262.969025,569.352661 262.969025,576.588135 262.969025,584.375671 
	C225.841507,584.375671 188.797165,584.375671 151.292511,584.375671 
	C151.292511,622.670044 151.292511,660.419067 151.292511,698.470581 
	C143.735718,698.470581 136.636948,698.470581 129.023621,698.470581 
	C128.909866,697.179138 128.785889,695.771606 128.661697,693.875854 
z" data-index="5"></path>
<path fill="#FBFBFB" opacity="1.000000" stroke="none" d="
M700.644409,473.377716 
	C698.508850,466.394958 693.794495,464.111389 687.224915,464.125275 
	C648.918274,464.206299 610.611511,464.165192 572.304749,464.165283 
	C570.316589,464.165283 568.328369,464.165222 565.986938,464.165222 
	C565.986938,459.059143 565.986938,454.168854 565.986938,449.153870 
	C567.052979,449.097260 568.038025,448.999390 569.023071,448.999207 
	C608.995300,448.991821 648.967712,448.928101 688.939758,449.020660 
	C709.467590,449.068207 721.943665,467.921478 713.972412,486.914398 
	C709.294861,498.059357 699.961792,502.471405 688.463623,502.789581 
	C679.310059,503.042877 670.144226,502.819672 660.984253,502.876923 
	C653.368958,502.924500 649.708679,506.171387 648.664246,513.820312 
	C643.591248,513.820312 638.492126,513.820312 633.387146,513.820312 
	C633.791992,498.322388 644.360962,487.658112 659.595642,487.360992 
	C668.919128,487.179199 678.249451,487.383270 687.575378,487.286102 
	C697.004944,487.187897 700.807068,483.212341 700.644409,473.377716 
z" data-index="6"></path>
<path fill="#F4F4F4" opacity="1.000000" stroke="none" d="
M356.637726,800.607544 
	C354.955688,802.493530 353.508118,804.093994 351.704132,806.088501 
	C357.915802,813.168091 360.463715,821.948242 359.523346,832.026001 
	C356.439056,832.026001 353.491211,832.026001 350.498260,832.026001 
	C349.944702,828.520508 349.620392,824.914612 348.774536,821.435547 
	C347.050079,814.342834 340.768890,808.157898 333.748444,808.039124 
	C312.814270,807.685303 291.870270,807.912170 270.458618,807.912170 
	C270.458618,816.026489 270.458618,823.924072 270.458618,832.045593 
	C266.914490,832.045593 263.843262,832.045593 260.548492,832.045593 
	C260.548492,812.577087 260.548492,793.337769 260.548492,773.450439 
	C262.351471,773.450439 263.954651,773.450256 265.557831,773.450439 
	C290.535675,773.453613 315.513489,773.448608 340.491333,773.462891 
	C356.467621,773.471985 364.111542,786.019592 356.637726,800.607544 
M347.893127,795.476318 
	C351.914429,788.406128 349.148010,783.399597 340.907837,783.354370 
	C318.423676,783.230957 295.938538,783.277466 273.453796,783.283813 
	C272.522369,783.284058 271.590973,783.557678 270.660522,783.703735 
	C270.660522,788.602295 270.660522,793.179321 270.660522,797.970642 
	C294.783203,797.970642 318.591034,798.009094 342.398071,797.886841 
	C344.041443,797.878418 345.678650,796.671204 347.893127,795.476318 
z" data-index="7" style="opacity: 1;"></path>
<path fill="#F7F7F7" opacity="1.000000" stroke="none" d="
M659.985657,807.714233 
	C642.520813,807.714233 625.553467,807.714233 608.181885,807.714233 
	C608.181885,815.923340 608.181885,823.860107 608.181885,832.038940 
	C604.678162,832.038940 601.576233,832.038940 598.219482,832.038940 
	C598.219482,812.675354 598.219482,793.294617 598.219482,773.707703 
	C599.187439,773.617554 599.991272,773.477478 600.795105,773.477173 
	C626.945801,773.466614 653.097412,773.606384 679.246765,773.418091 
	C694.566406,773.307800 700.499939,787.578857 695.467590,798.221619 
	C694.106506,801.100220 691.445068,803.364014 689.150879,806.193054 
	C695.765137,813.218445 698.001587,821.942932 696.928284,831.955017 
	C693.907349,831.955017 690.848328,831.955017 687.593079,831.955017 
	C687.334351,828.880188 687.293884,825.896667 686.798950,822.990540 
	C685.366394,814.578369 678.497681,808.452515 669.970581,807.899719 
	C666.817322,807.695312 663.646179,807.767944 659.985657,807.714233 
M608.004578,784.890381 
	C608.004578,789.154541 608.004578,793.418762 608.004578,797.995361 
	C615.613953,797.995361 622.582764,797.995361 629.551514,797.995361 
	C645.874573,797.995361 662.202881,798.203125 678.515625,797.793213 
	C681.276489,797.723877 684.836609,795.586243 686.400269,793.294067 
	C687.497681,791.685425 686.683655,787.410889 685.165527,785.755066 
	C683.582214,784.028137 680.136230,783.373657 677.495422,783.351868 
	C655.843933,783.172791 634.190247,783.236938 612.537292,783.282593 
	C611.107605,783.285645 609.678833,783.743591 608.004578,784.890381 
z" data-index="8" style="opacity: 1;"></path>
<path fill="#F6F6F6" opacity="1.000000" stroke="none" d="
M753.999817,807.717407 
	C742.720398,807.717407 731.940979,807.717407 720.719360,807.717407 
	C720.719360,815.993286 720.719360,823.890259 720.719360,832.027710 
	C717.349243,832.027710 714.417969,832.027710 711.123962,832.027710 
	C711.123962,816.796082 710.750061,801.543701 711.289124,786.323669 
	C711.540955,779.213379 719.038635,773.695679 727.406250,773.583679 
	C744.045654,773.360962 760.689636,773.475342 777.331726,773.459961 
	C782.490845,773.455200 787.653809,773.357910 792.808167,773.520264 
	C802.471619,773.824585 809.269287,779.410645 809.694641,789.005127 
	C810.326599,803.257751 809.858337,817.559143 809.858337,832.040405 
	C806.640015,832.040405 803.691650,832.040405 800.213013,832.040405 
	C800.213013,824.139954 800.213013,816.265930 800.213013,807.717468 
	C784.630066,807.717468 769.565002,807.717468 753.999817,807.717407 
M722.741211,785.284668 
	C721.769775,789.286865 720.798401,793.289062 719.739319,797.652710 
	C747.346924,797.652710 773.673889,797.652710 799.995361,797.652710 
	C800.210266,784.135559 799.331726,783.253784 785.993469,783.253784 
	C767.870422,783.253784 749.746826,783.189575 731.624756,783.322632 
	C728.887390,783.342712 726.156677,784.281860 722.741211,785.284668 
z" data-index="9" style="opacity: 1;"></path>
<path fill="#F8F8F8" opacity="1.000000" stroke="none" d="
M493.868774,830.248901 
	C488.028992,826.317688 485.458466,821.107910 485.573578,814.416626 
	C485.713898,806.259888 485.529785,798.096985 485.713989,789.941833 
	C485.926758,780.524109 492.232605,773.757141 501.679749,773.640015 
	C523.988159,773.363281 546.303650,773.357971 568.612854,773.583557 
	C578.028015,773.678772 584.446045,780.493286 584.824158,790.377686 
	C585.148560,798.857483 585.112366,807.365173 584.858093,815.849182 
	C584.566467,825.582642 577.574707,832.186096 567.788513,832.217468 
	C546.142334,832.286926 524.495361,832.324585 502.850037,832.181580 
	C499.966248,832.162537 497.089905,831.018066 493.868774,830.248901 
M515.519348,783.251160 
	C511.691101,783.260803 507.855591,783.124268 504.036224,783.313232 
	C497.861572,783.618896 495.672913,785.834045 495.572174,791.978943 
	C495.457642,798.967163 495.572357,805.959351 495.599548,812.949768 
	C495.628510,820.392395 497.516327,822.548218 505.009430,822.591309 
	C525.482117,822.709045 545.956299,822.676392 566.429382,822.588318 
	C572.365112,822.562683 574.843994,819.910828 574.893188,813.960815 
	C574.951050,806.970459 574.929443,799.978943 574.882629,792.988342 
	C574.832886,785.569641 572.494751,783.282288 564.950623,783.270691 
	C548.804871,783.245850 532.659119,783.255554 515.519348,783.251160 
z" data-index="10" style="opacity: 1;"></path>
<path fill="#F9F9F9" opacity="1.000000" stroke="none" d="
M236.301270,774.569580 
	C243.706116,777.741455 247.080048,783.191956 247.138351,790.742981 
	C247.202606,799.066406 247.286331,807.393066 247.133789,815.714050 
	C246.952713,825.591125 240.199432,832.189880 230.302841,832.217468 
	C208.494217,832.278198 186.685181,832.292175 164.876648,832.222473 
	C154.763870,832.190186 148.095963,825.489075 147.957825,815.310059 
	C147.844864,806.987610 147.830048,798.660950 147.955734,790.338928 
	C148.102219,780.640137 154.982407,773.658447 164.646378,773.602234 
	C186.620667,773.474304 208.596039,773.506287 230.570847,773.545593 
	C232.364334,773.548828 234.156845,774.103394 236.301270,774.569580 
M158.001129,793.707581 
	C158.002319,800.368103 157.980667,807.028748 158.011322,813.689148 
	C158.040222,819.966675 160.025284,822.493530 166.107910,822.537048 
	C187.252914,822.688416 208.400726,822.658569 229.545593,822.476807 
	C235.126129,822.428833 237.073196,819.969849 237.130051,814.180115 
	C237.200378,807.020752 237.215210,799.860474 237.192642,792.700745 
	C237.170105,785.550232 235.309830,783.395813 227.995743,783.339294 
	C207.682983,783.182373 187.367386,783.179077 167.054688,783.339722 
	C159.881989,783.396423 158.207932,785.448364 158.001129,793.707581 
z" data-index="11" style="opacity: 1;"></path>
<path fill="#F9F9F9" opacity="1.000000" stroke="none" d="
M1102.998535,773.469299 
	C1107.996826,773.495605 1112.496826,773.466248 1116.994263,773.559570 
	C1126.851196,773.764099 1133.738892,780.209961 1134.065674,790.040649 
	C1134.358765,798.862122 1134.374146,807.710510 1134.048218,816.529846 
	C1133.713135,825.599304 1126.875732,832.146729 1117.886963,832.191223 
	C1095.558716,832.301758 1073.229370,832.294312 1050.901001,832.200256 
	C1041.761108,832.161743 1035.093384,825.299255 1034.932373,815.884705 
	C1034.786987,807.388916 1034.829834,798.887939 1034.920532,790.390625 
	C1035.026611,780.449219 1041.957275,773.578064 1052.009277,773.526001 
	C1068.838867,773.438904 1085.668945,773.481384 1102.998535,773.469299 
M1089.499756,822.645630 
	C1098.155884,822.636292 1106.815308,822.767944 1115.467163,822.570801 
	C1121.805786,822.426331 1124.002319,820.116638 1124.047852,814.168823 
	C1124.104004,806.844727 1124.117798,799.519531 1124.061768,792.195496 
	C1124.013184,785.841064 1122.173218,783.477600 1115.903198,783.417175 
	C1094.932007,783.215027 1073.956421,783.224548 1052.985107,783.419983 
	C1046.783691,783.477722 1044.922729,785.876160 1044.879272,792.257202 
	C1044.831787,799.248413 1044.871460,806.240295 1044.896240,813.231812 
	C1044.921875,820.448120 1046.815063,822.497681 1054.042114,822.572998 
	C1065.526978,822.692627 1077.013794,822.630737 1089.499756,822.645630 
z" data-index="12" style="opacity: 1;"></path>
<path fill="#F8F8F8" opacity="1.000000" stroke="none" d="
M49.000427,832.103149 
	C39.541786,829.101501 35.743755,824.209412 35.641956,814.924805 
	C35.546951,806.260254 35.498878,797.588562 35.742218,788.928772 
	C35.977516,780.555298 42.798969,773.644958 51.130051,773.594421 
	C78.295006,773.429688 105.461357,773.492188 132.627167,773.487000 
	C133.263763,773.486877 133.900375,773.718811 134.712585,773.876648 
	C134.712585,776.939148 134.712585,779.881653 134.712585,783.265991 
	C131.744095,783.265991 128.941666,783.266663 126.139221,783.265869 
	C103.139641,783.259399 80.140060,783.247559 57.140484,783.248413 
	C47.267056,783.248840 45.338512,785.140625 45.331421,794.797913 
	C45.326897,800.964417 45.314987,807.131226 45.361431,813.297424 
	C45.412590,820.090027 47.675346,822.509094 54.788109,822.576233 
	C69.953224,822.719482 85.120598,822.624573 100.287048,822.626038 
	C111.598366,822.627075 122.909676,822.626221 134.555878,822.626221 
	C134.555878,825.817139 134.555878,828.728516 134.555878,832.167236 
	C106.246468,832.167236 77.828842,832.167236 49.000427,832.103149 
z" data-index="13"></path>
<path fill="#F5F5F5" opacity="1.000000" stroke="none" d="
M442.997406,773.454102 
	C447.494171,773.457703 451.494812,773.359680 455.488464,773.484924 
	C465.414520,773.796265 471.906494,780.364807 472.189850,790.254150 
	C472.463165,799.792542 466.410156,806.752075 456.628937,807.558472 
	C451.334320,807.994995 445.978638,807.713074 440.650482,807.716003 
	C421.666504,807.726440 402.682526,807.720093 383.109528,807.720093 
	C383.109528,815.875854 383.109528,823.913574 383.109528,832.110901 
	C379.571136,832.110901 376.621338,832.110901 373.380371,832.110901 
	C373.380371,812.625305 373.380371,793.271729 373.380371,773.454102 
	C396.609161,773.454102 419.553650,773.454102 442.997406,773.454102 
M460.269135,795.729370 
	C460.749146,792.959900 462.461304,789.485718 461.386139,787.605652 
	C460.142639,785.431396 456.461884,783.500671 453.810669,783.462646 
	C431.157013,783.138062 408.496796,783.260742 385.838593,783.284485 
	C384.921875,783.285461 384.005585,783.634399 383.289856,783.780273 
	C383.289856,788.674805 383.289856,793.238464 383.289856,797.991455 
	C407.293335,797.991455 430.938782,798.026062 454.583618,797.918823 
	C456.281891,797.911133 457.975433,796.867065 460.269135,795.729370 
z" data-index="14" style="opacity: 1;"></path>
<path fill="#F8F8F8" opacity="1.000000" stroke="none" d="
M999.999023,832.237122 
	C980.700928,832.237122 961.902710,832.237122 942.733276,832.237122 
	C942.733276,829.142761 942.733276,826.239990 942.733276,822.895203 
	C953.836121,822.895203 965.074707,822.895203 976.650146,822.895203 
	C976.650146,809.583435 976.650146,796.698486 976.650146,783.401611 
	C965.511780,783.401611 954.293457,783.401611 942.724915,783.401611 
	C942.724915,780.094604 942.724915,777.178955 942.724915,773.858521 
	C968.681946,773.858521 994.718994,773.858521 1021.126343,773.858521 
	C1021.126343,776.831421 1021.126343,779.870911 1021.126343,783.260864 
	C1009.803162,783.260864 998.700012,783.260864 987.259460,783.260864 
	C987.259460,796.479004 987.259460,809.354614 987.259460,822.563049 
	C998.556396,822.563049 1009.662903,822.563049 1021.117432,822.563049 
	C1021.117432,825.792175 1021.117432,828.707581 1021.117432,832.237122 
	C1014.324829,832.237122 1007.411926,832.237122 999.999023,832.237122 
z" data-index="15" style="opacity: 1;"></path>
<path fill="#F4F4F4" opacity="1.000000" stroke="none" d="
M1147.191895,821.957031 
	C1147.193115,811.639832 1147.128418,801.815247 1147.212524,791.991882 
	C1147.314819,780.053040 1153.896851,773.539795 1165.858887,773.518494 
	C1186.838623,773.481201 1207.818359,773.484253 1228.798096,773.522095 
	C1239.135376,773.540710 1246.016968,779.568420 1246.314697,789.822266 
	C1246.719727,803.770813 1246.415649,817.739990 1246.415649,831.993530 
	C1243.333130,831.993530 1240.395752,831.993530 1236.818481,831.993530 
	C1236.818481,830.643250 1236.818848,829.056152 1236.818481,827.469055 
	C1236.815674,815.979980 1236.893555,804.490112 1236.780151,793.002136 
	C1236.709961,785.899780 1234.567383,783.443481 1227.616943,783.381042 
	C1207.305664,783.198486 1186.990723,783.190918 1166.679321,783.364685 
	C1159.204590,783.428650 1157.318115,785.598083 1157.268311,793.105103 
	C1157.182495,806.046875 1157.244507,818.989624 1157.244507,832.065186 
	C1153.746704,832.065186 1150.666992,832.065186 1147.192017,832.065186 
	C1147.192017,828.703125 1147.192017,825.576660 1147.191895,821.957031 
z" data-index="16" style="opacity: 1;"></path>
<path fill="#F4F4F4" opacity="1.000000" stroke="none" d="
M866.000366,773.452637 
	C887.144958,773.452698 907.789551,773.452698 928.754150,773.452698 
	C928.754150,776.812683 928.754150,779.873779 928.754150,783.280273 
	C912.932129,783.280273 897.146057,783.280273 881.116760,783.280273 
	C881.116760,799.587769 881.116760,815.564026 881.116760,831.898193 
	C877.843262,831.898193 874.800293,831.898193 871.186035,831.898193 
	C871.186035,815.890320 871.186035,799.839478 871.186035,783.424500 
	C855.028442,783.424500 839.424744,783.424500 823.468567,783.424500 
	C823.468567,780.028992 823.468567,776.999756 823.468567,773.452637 
	C837.574890,773.452637 851.537598,773.452637 866.000366,773.452637 
z" data-index="17" style="opacity: 1;"></path>
<path fill="#ECECEC" opacity="1.000000" stroke="none" d="
M633.143738,530.197388 
	C633.143066,528.443909 633.143066,527.159180 633.143066,525.273743 
	C635.969299,525.273743 638.414978,525.273743 640.860657,525.273743 
	C643.320679,525.273743 645.780701,525.273743 648.546997,525.273743 
	C648.546997,530.598022 648.546997,535.453369 648.546997,540.599121 
	C643.498901,540.599121 638.602600,540.599121 633.144409,540.599121 
	C633.144409,537.192444 633.144409,533.929321 633.143738,530.197388 
z" data-index="18"></path>

<path fill="#070707" opacity="1.000000" stroke="none" d="
M608.127075,784.440186 
	C609.678833,783.743591 611.107605,783.285645 612.537292,783.282593 
	C634.190247,783.236938 655.843933,783.172791 677.495422,783.351868 
	C680.136230,783.373657 683.582214,784.028137 685.165527,785.755066 
	C686.683655,787.410889 687.497681,791.685425 686.400269,793.294067 
	C684.836609,795.586243 681.276489,797.723877 678.515625,797.793213 
	C662.202881,798.203125 645.874573,797.995361 629.551514,797.995361 
	C622.582764,797.995361 615.613953,797.995361 608.004578,797.995361 
	C608.004578,793.418762 608.004578,789.154541 608.127075,784.440186 
z" data-index="20" style="opacity: 1; visibility: hidden;"></path>

<path fill="#050505" opacity="1.000000" stroke="none" d="
M516.016357,783.251160 
	C532.659119,783.255554 548.804871,783.245850 564.950623,783.270691 
	C572.494751,783.282288 574.832886,785.569641 574.882629,792.988342 
	C574.929443,799.978943 574.951050,806.970459 574.893188,813.960815 
	C574.843994,819.910828 572.365112,822.562683 566.429382,822.588318 
	C545.956299,822.676392 525.482117,822.709045 505.009430,822.591309 
	C497.516327,822.548218 495.628510,820.392395 495.599548,812.949768 
	C495.572357,805.959351 495.457642,798.967163 495.572174,791.978943 
	C495.672913,785.834045 497.861572,783.618896 504.036224,783.313232 
	C507.855591,783.124268 511.691101,783.260803 516.016357,783.251160 
z" data-index="22" style="opacity: 1; visibility: hidden;"></path>

<path fill="#050505" opacity="1.000000" stroke="none" d="
M1088.999756,822.645630 
	C1077.013794,822.630737 1065.526978,822.692627 1054.042114,822.572998 
	C1046.815063,822.497681 1044.921875,820.448120 1044.896240,813.231812 
	C1044.871460,806.240295 1044.831787,799.248413 1044.879272,792.257202 
	C1044.922729,785.876160 1046.783691,783.477722 1052.985107,783.419983 
	C1073.956421,783.224548 1094.932007,783.215027 1115.903198,783.417175 
	C1122.173218,783.477600 1124.013184,785.841064 1124.061768,792.195496 
	C1124.117798,799.519531 1124.104004,806.844727 1124.047852,814.168823 
	C1124.002319,820.116638 1121.805786,822.426331 1115.467163,822.570801 
	C1106.815308,822.767944 1098.155884,822.636292 1088.999756,822.645630 
z" data-index="24" style="opacity: 1; visibility: hidden;"></path>

</svg>