<svg version="1.1" id="Layer_1" xmlns="http://www.w3.org/2000/svg" xmlns:xlink="http://www.w3.org/1999/xlink" x="0px" y="0px" width="100%" viewBox="0 0 1280 1280" enable-background="new 0 0 1280 1280" xml:space="preserve">
<path fill="none" opacity="1.000000" stroke="#000000" stroke-linecap="round" stroke-linejoin="round" stroke-width="23.000000" d="
M991.500000,687.500000 
	C991.500000,659.333313 991.268982,631.164124 991.581238,603.000916 
	C991.789490,584.221741 978.886353,572.885681 961.499817,572.942871 
	C912.000366,573.105591 862.499756,572.915894 813.000122,573.050476 
	C797.852173,573.091614 789.288757,580.335938 784.616638,593.042908 
	C783.497314,596.087158 783.553223,599.665894 783.544067,603.000122 
	C783.466797,631.166626 783.500000,659.333313 783.500000,687.500000 
" data-index="0"></path>
<path fill="none" opacity="1.000000" stroke="#000000" stroke-linecap="round" stroke-linejoin="round" stroke-width="10.000000" d="
M1113.500000,778.500000 
	C1093.333374,778.500000 1073.165161,778.638977 1053.000732,778.430664 
	C1045.097656,778.349121 1039.198853,783.966431 1039.850830,791.512878 
	C1040.522583,799.288147 1039.961792,807.166931 1040.010864,814.999939 
	C1040.058838,822.649231 1044.938721,827.497070 1052.500000,827.498535 
	C1073.500000,827.502625 1094.500000,827.503601 1115.500000,827.498352 
	C1124.565796,827.496033 1128.915527,823.171265 1128.989258,813.999939 
	C1129.044189,807.167053 1128.682129,800.315063 1129.073486,793.504211 
	C1129.682861,782.897949 1122.864014,777.238525 1114.000000,778.500000 
" data-index="1"></path>
<path fill="none" opacity="1.000000" stroke="#000000" stroke-linecap="round" stroke-linejoin="round" stroke-width="10.000000" d="
M167.500000,778.500000 
	C157.079529,778.500000 153.000000,782.579529 153.000000,793.000000 
	C153.000000,800.000000 152.956390,807.000366 153.010925,813.999939 
	C153.080765,822.965332 157.637741,827.496216 166.500000,827.498352 
	C187.500000,827.503418 208.500000,827.502686 229.500000,827.498596 
	C237.142899,827.497070 241.940948,822.731812 241.988953,814.999939 
	C242.038620,807.000244 242.041092,798.999756 241.988586,791.000061 
	C241.934570,782.771362 237.634003,778.503296 229.500000,778.501526 
	C209.000000,778.496948 188.500000,778.500000 168.000000,778.500000 
" data-index="2"></path>
<path fill="none" opacity="1.000000" stroke="#000000" stroke-linecap="round" stroke-linejoin="round" stroke-width="16.000000" d="
M639.000000,508.750000 
	C640.489258,507.480103 642.033752,506.628998 643.172852,504.596893 
	C647.305237,497.224731 654.338013,494.961334 662.499878,494.945923 
	C671.998840,494.927979 681.500000,494.890198 691.003906,494.666534 
	C703.078369,494.382416 713.141113,480.422699 706.499512,467.000244 
	C702.594849,459.109253 695.817017,456.481720 687.500000,456.487793 
	C649.500000,456.515564 611.500000,456.500000 573.500000,456.500000 
" data-index="3"></path>
<path fill="none" opacity="1.000000" stroke="#000000" stroke-linecap="round" stroke-linejoin="round" stroke-width="10.000000" d="
M130.500000,778.500000 
	C104.833336,778.500000 79.163651,778.714417 53.502052,778.353821 
	C46.828484,778.260071 39.958645,784.125244 40.398663,791.506042 
	C40.854099,799.145569 40.988056,806.874084 40.352161,814.487671 
	C39.801037,821.086426 46.944450,827.781555 53.502861,827.673218 
	C79.162529,827.249451 104.833336,827.500000 130.500000,827.500000 
" data-index="4"></path>
<path fill="none" opacity="1.000000" stroke="#000000" stroke-linecap="round" stroke-linejoin="round" stroke-width="11.000000" d="
M380.000000,803.000000 
	C403.833344,803.000000 427.666656,802.991272 451.500000,803.006104 
	C457.481323,803.009827 463.343964,802.452087 465.941895,795.976685 
	C469.345978,787.491943 465.708496,778.773438 455.498199,778.616028 
	C431.837189,778.251221 408.166626,778.519348 384.500031,778.486877 
	C378.291595,778.478394 377.611633,780.088196 378.010925,784.999084 
	C378.498871,791.000061 376.673309,797.193909 379.500000,803.000000 
	C376.517822,810.164124 378.624878,817.675110 378.007385,825.000610 
	C377.951599,825.662598 378.000000,826.333313 378.000000,827.000000 
" data-index="5"></path>
<path fill="none" opacity="1.000000" stroke="#000000" stroke-linecap="round" stroke-linejoin="round" stroke-width="24.000000" d="
M511.000000,630.000000 
	C449.502472,631.080872 387.999786,630.250183 326.499878,630.464783 
	C320.834137,630.484558 315.166656,629.479858 309.500000,630.500000 
" data-index="6"></path>
<path fill="none" opacity="1.000000" stroke="#000000" stroke-linecap="round" stroke-linejoin="round" stroke-width="10.000000" d="
M1241.500000,827.500000 
	C1241.500000,815.500000 1241.179932,803.488281 1241.618164,791.504333 
	C1241.887817,784.127991 1235.174927,778.226624 1228.497192,778.353271 
	C1207.504761,778.751587 1186.500000,778.497070 1165.500000,778.501526 
	C1157.405151,778.503235 1153.245850,781.965393 1152.553467,790.004578 
	C1151.478394,802.487122 1151.724854,815.000000 1152.500000,827.500000 
" data-index="7"></path>
<path fill="none" opacity="1.000000" stroke="#000000" stroke-linecap="round" stroke-linejoin="round" stroke-width="24.000000" d="
M1254.000000,688.000000 
	C1253.704712,667.565613 1246.053589,650.885864 1229.005249,638.992554 
	C1228.131714,638.383301 1226.944214,637.839417 1226.559692,636.973511 
	C1222.330322,627.447205 1213.871338,630.117981 1206.500366,630.135254 
	C1204.559326,630.139771 1202.501221,630.479492 1200.500000,630.480469 
	C1150.000000,630.505249 1099.500000,630.500000 1049.000000,630.500000 
" data-index="8"></path>
<path fill="none" opacity="1.000000" stroke="#000000" stroke-linecap="round" stroke-linejoin="round" stroke-width="11.000000" d="
M605.000000,803.000000 
	C618.666687,803.000000 632.338196,802.774231 645.998535,803.068359 
	C657.835388,803.323181 669.753296,801.333740 681.521667,804.417358 
	C684.494812,805.196350 691.664917,796.673340 692.000000,792.500000 
	C692.719788,783.536316 688.043213,778.500000 679.000000,778.500000 
	C656.166687,778.500000 633.333191,778.539001 610.500061,778.478821 
	C602.549988,778.457825 602.680176,780.004150 603.032043,785.998108 
	C603.365417,791.675110 601.742920,797.532471 604.500000,803.000000 
	C601.517822,810.164124 603.624939,817.675110 603.007446,825.000610 
	C602.951660,825.662598 603.000000,826.333313 603.000000,827.000000 
" data-index="9"></path>
<path fill="none" opacity="1.000000" stroke="#000000" stroke-linecap="round" stroke-linejoin="round" stroke-width="10.000000" d="
M344.500000,804.500000 
	C346.500000,802.833313 348.519714,801.189575 350.495544,799.494812 
	C353.880676,796.591309 355.775848,790.619324 354.500000,787.000000 
	C352.642212,781.729919 348.391815,778.518311 343.000000,778.512024 
	C319.166687,778.484131 295.333344,778.487427 271.500000,778.509521 
	C266.060181,778.514526 265.347992,779.068848 265.558563,784.497742 
	C265.798218,790.674805 266.681824,797.147034 266.373962,802.966858 
	C265.996704,810.097778 266.140076,817.342896 265.511993,824.501038 
	C265.424927,825.493408 265.500000,826.500000 265.500000,827.500000 
" data-index="10"></path>
<path fill="none" opacity="1.000000" stroke="#000000" stroke-linecap="round" stroke-linejoin="round" stroke-width="23.000000" d="
M252.000000,573.000000 
	C219.500000,573.000000 186.999283,573.107727 154.500702,572.892944 
	C149.136597,572.857544 144.398666,576.087830 139.526688,575.680603 
	C134.749908,575.281311 130.151566,572.906616 124.999695,572.928955 
	C92.666969,573.069397 60.333332,573.000000 28.000000,573.000000 
" data-index="11"></path>
<path fill="none" opacity="1.000000" stroke="#000000" stroke-linecap="round" stroke-linejoin="round" stroke-width="23.000000" d="
M140.000000,577.000000 
	C140.000000,614.000000 140.000000,651.000000 140.000000,688.000000 
" data-index="12"></path>
<path fill="none" opacity="1.000000" stroke="#000000" stroke-linecap="round" stroke-linejoin="round" stroke-width="24.000000" d="
M648.500000,577.000000 
	C648.500000,612.666687 648.500000,648.333313 648.500000,684.000000 
" data-index="13"></path>
<path fill="none" opacity="1.000000" stroke="#000000" stroke-linecap="round" stroke-linejoin="round" stroke-width="10.000000" d="
M803.000000,803.000000 
	C797.833313,801.926453 792.667664,802.938660 787.499817,802.960815 
	C765.833557,803.053650 744.165833,802.897888 722.500610,803.074158 
	C717.288147,803.116638 715.970459,802.183411 715.520386,795.998535 
	C715.387695,794.174866 715.453613,792.331909 715.508301,790.500244 
	C715.707336,783.834961 721.082886,778.388916 728.000427,778.440918 
	C749.499207,778.602295 771.000000,778.490112 792.500000,778.505737 
	C799.386902,778.510742 803.504883,782.226746 804.528564,788.995667 
	C805.193176,793.389709 805.535400,797.730469 803.987549,801.995483 
	C803.004517,804.704102 805.343018,806.773499 805.134644,809.510254 
	C804.692993,815.309937 805.000000,821.166687 805.000000,827.000000 
" data-index="14"></path>
<path fill="none" opacity="1.000000" stroke="#000000" stroke-linecap="round" stroke-linejoin="round" stroke-width="23.000000" d="
M730.000000,573.000000 
	C707.833313,573.000000 685.665955,573.095398 663.500488,572.931335 
	C658.107971,572.891479 653.290771,576.047058 648.500000,576.047058 
	C643.709229,576.047058 638.892090,572.890503 633.499451,572.931335 
	C611.667419,573.096680 589.833313,573.000000 568.000000,573.000000 
" data-index="15"></path>
<path fill="none" opacity="1.000000" stroke="#000000" stroke-linecap="round" stroke-linejoin="round" stroke-width="24.000000" d="
M568.500000,687.500000 
	C590.666687,687.500000 612.833618,687.437561 634.999756,687.549255 
	C639.804016,687.573486 644.180664,684.897949 648.500000,684.897949 
	C652.819336,684.897949 657.196045,687.572937 662.000244,687.549255 
	C684.499695,687.438354 707.000000,687.500000 729.500000,687.500000 
" data-index="16"></path>
<path fill="none" opacity="1.000000" stroke="#000000" stroke-linecap="round" stroke-linejoin="round" stroke-width="11.000000" d="
M356.000000,827.750000 
	C352.846161,826.236938 354.738708,823.185791 354.178986,820.955078 
	C352.565704,814.525696 347.869141,810.170105 344.308990,805.135071 
	C342.926880,803.180298 339.293030,803.048401 336.499786,803.026978 
	C332.167236,802.993652 327.849121,802.774780 323.497162,802.869873 
	C308.171143,803.204834 292.833160,802.960449 277.500153,803.031189 
	C274.165802,803.046570 270.833344,801.701904 267.500000,803.000000 
" data-index="17"></path>
<path fill="none" opacity="1.000000" stroke="#000000" stroke-linecap="round" stroke-linejoin="round" stroke-width="23.000000" d="
M1254.000000,573.000000 
	C1253.548584,592.357605 1246.591187,608.438477 1230.520386,620.028198 
	C1226.839966,622.682312 1223.598389,625.855286 1221.500000,630.000000 
" data-index="18"></path>
<path fill="none" opacity="1.000000" stroke="#000000" stroke-linecap="round" stroke-linejoin="round" stroke-width="23.000000" d="
M306.000000,573.000000 
	C306.000000,587.500000 306.186584,602.003662 305.900635,616.498047 
	C305.797974,621.699829 309.085876,626.369385 308.612061,630.959961 
	C308.139069,635.543091 305.908905,640.045166 305.953949,645.000427 
	C306.084137,659.332520 306.000000,673.666687 306.000000,688.000000 
" data-index="19"></path>
<path fill="none" opacity="1.000000" stroke="#000000" stroke-linecap="round" stroke-linejoin="round" stroke-width="24.000000" d="
M1045.500000,573.500000 
	C1045.500000,587.833313 1045.598267,602.167725 1045.446411,616.499451 
	C1045.393799,621.467407 1048.077393,626.031616 1048.077393,630.500000 
	C1048.077393,634.968384 1045.393799,639.532593 1045.446411,644.500549 
	C1045.598267,658.832275 1045.500000,673.166687 1045.500000,687.500000 
" data-index="20"></path>
<path fill="none" opacity="1.000000" stroke="#000000" stroke-linecap="round" stroke-linejoin="round" stroke-width="24.000000" d="
M514.500000,573.500000 
	C514.500000,587.833313 514.439087,602.167114 514.534241,616.499756 
	C514.565918,621.278687 512.003906,625.787964 512.003906,630.000000 
	C512.003906,634.212036 514.564941,638.721375 514.534241,643.500244 
	C514.440125,658.166321 514.500000,672.833313 514.500000,687.500000 
" data-index="21"></path>
<path fill="none" opacity="1.000000" stroke="#000000" stroke-linecap="round" stroke-linejoin="round" stroke-width="10.000000" d="
M924.500000,778.500000 
	C908.345825,779.403076 892.077515,776.616516 876.000000,780.000000 
	C859.922485,776.616516 843.654175,779.403076 827.500000,778.500000 
" data-index="22"></path>
<path fill="none" opacity="1.000000" stroke="#000000" stroke-linecap="round" stroke-linejoin="round" stroke-width="11.000000" d="
M876.000000,780.500000 
	C876.000000,796.000000 876.000000,811.500000 876.000000,827.000000 
" data-index="23"></path>
<path fill="none" opacity="1.000000" stroke="#000000" stroke-linecap="round" stroke-linejoin="round" stroke-width="11.000000" d="
M982.000000,780.500000 
	C982.000000,795.500000 982.000000,810.500000 982.000000,825.500000 
" data-index="24"></path>
<path fill="none" opacity="1.000000" stroke="#000000" stroke-linecap="round" stroke-linejoin="round" stroke-width="10.000000" d="
M945.500000,777.750000 
	C947.178955,779.132080 949.165161,778.445312 951.000366,778.465149 
	C958.666199,778.547913 966.401611,777.865967 973.980347,778.682373 
	C981.237976,779.464111 988.328308,778.233521 995.501404,778.453430 
	C1002.494873,778.667847 1009.500000,778.500000 1016.500000,778.500000 
" data-index="25"></path>
<path fill="none" opacity="1.000000" stroke="#000000" stroke-linecap="round" stroke-linejoin="round" stroke-width="10.000000" d="
M1016.500000,827.500000 
	C1004.845764,826.709839 993.050598,829.208679 981.500000,826.000000 
	C969.953247,829.298035 958.151733,826.651489 946.500000,827.500000 
" data-index="26"></path>
<path fill="none" opacity="1.000000" stroke="#000000" stroke-linecap="round" stroke-linejoin="round" stroke-width="10.000000" d="
M717.000000,803.000000 
	C714.941162,806.454102 715.539978,810.275024 715.508911,814.000061 
	C715.471313,818.499756 715.500000,823.000000 715.500000,827.500000 
" data-index="27"></path>
<path fill="none" opacity="1.000000" stroke="#000000" stroke-linecap="round" stroke-linejoin="round" stroke-width="10.000000" d="
M682.500000,805.000000 
	C683.984863,809.634460 688.372559,812.385437 690.090515,816.966064 
	C691.385498,820.418823 692.584229,823.781555 692.500000,827.500000 
" data-index="28"></path>
<path fill="none" opacity="1.000000" stroke="#000000" stroke-linecap="round" stroke-linejoin="round" stroke-width="10.000000" d="
M500.000000,778.500000 
	C492.388000,780.942139 490.176819,786.577576 490.447205,794.001953 
	C490.695709,800.826172 490.992371,807.712646 490.359680,814.486877 
	C489.743286,821.086548 496.939636,827.820374 503.503876,827.673889 
	C524.493408,827.205505 545.501221,827.374695 566.499268,827.575317 
	C572.903137,827.636475 579.459656,824.348816 579.837097,815.992615 
	C580.234497,807.195251 580.729065,798.305359 579.480530,789.502747 
	C578.394226,781.844238 574.559570,778.512268 567.000000,778.506287 
	C544.833313,778.488586 522.666687,778.500000 500.500000,778.500000 
" data-index="29"></path>
</svg>