<svg version="1.1" id="Layer_1" xmlns="http://www.w3.org/2000/svg" xmlns:xlink="http://www.w3.org/1999/xlink" x="0px" y="0px" width="100%" viewBox="0 0 1024 1024" enable-background="new 0 0 1024 1024" xml:space="preserve">
<path fill="#000000" opacity="1.000000" stroke="none" d="
M473.000000,540.768799 
	C483.995972,540.769226 494.492950,540.687988 504.987335,540.818176 
	C508.343658,540.859741 509.751892,539.808044 509.732574,536.244324 
	C509.619629,515.419556 509.592133,494.593231 509.756226,473.769165 
	C509.790039,469.475769 507.742859,468.892792 504.210754,468.912140 
	C486.718018,469.008026 469.224457,468.959534 451.731171,468.936859 
	C445.274689,468.928497 444.962921,468.587952 444.915863,462.184174 
	C444.823700,449.642670 444.823700,449.629883 457.511932,449.627899 
	C500.828644,449.621155 544.145569,449.684143 587.461792,449.532440 
	C591.877991,449.516968 593.538635,450.466431 593.462708,455.245422 
	C593.244995,468.945953 593.458008,468.964722 579.750793,468.972015 
	C564.923218,468.979889 550.093872,469.078705 535.269043,468.871735 
	C530.643188,468.807159 528.763428,470.168182 528.818604,475.097534 
	C529.040283,494.920776 529.024963,514.748901 528.841187,534.572876 
	C528.797546,539.283630 530.237000,540.956116 535.115051,540.885437 
	C552.604614,540.631897 570.101196,540.890137 587.592712,540.713867 
	C591.809937,540.671448 593.465454,541.785522 593.447205,546.319519 
	C593.391479,560.187683 593.570312,560.183044 579.889282,560.180481 
	C537.238953,560.172607 494.588623,560.173462 451.938293,560.159668 
	C445.093628,560.157471 444.891479,559.995728 444.930084,553.151306 
	C445.012115,538.607788 443.538940,541.031128 457.006531,540.788879 
	C462.169464,540.696045 467.335419,540.770813 473.000000,540.768799 
z" data-index="0"></path>
<path fill="#000000" opacity="1.000000" stroke="none" d="
M998.998657,496.977112 
	C996.438599,499.851013 994.118530,502.464539 991.269409,505.674011 
	C991.280945,506.200439 992.773560,506.586914 993.722656,507.411285 
	C1004.794373,517.028625 1011.140686,529.070740 1012.365112,543.732361 
	C1012.696838,547.704407 1012.931763,551.684570 1013.205994,555.661377 
	C1013.422791,558.805176 1012.002869,560.299561 1008.802673,560.187256 
	C1006.307068,560.099731 1003.805786,560.182312 1001.307007,560.178162 
	C993.803223,560.165771 993.650635,560.160767 993.791992,552.803894 
	C993.981506,542.938354 991.557739,534.000916 985.001282,526.465149 
	C977.750977,518.131775 968.209290,514.499023 957.472351,514.443726 
	C922.156616,514.261658 886.839233,514.426208 851.523193,514.276917 
	C847.222595,514.258789 846.177002,515.851440 846.249146,519.837524 
	C846.460205,531.494934 846.191528,543.161133 846.412903,554.818176 
	C846.492920,559.029846 844.899475,560.320435 840.868591,560.237854 
	C824.733887,559.907166 827.074280,562.093323 827.008789,546.479126 
	C826.882996,516.493774 826.944275,486.507629 826.963562,456.521820 
	C826.967957,449.656769 827.034485,449.656799 833.968994,449.638794 
	C846.333801,449.606689 846.331360,449.606689 846.334900,461.922974 
	C846.337585,471.418457 846.429810,480.915039 846.307129,490.408844 
	C846.266174,493.572418 847.326660,494.918182 850.608826,494.909607 
	C887.923645,494.811829 925.242615,495.099701 962.551819,494.614563 
	C979.066162,494.399811 993.176453,478.511780 993.710999,461.218506 
	C994.068359,449.657349 994.068359,449.657349 1005.898438,449.637329 
	C1013.244141,449.624908 1013.350891,449.626923 1013.208008,457.189972 
	C1012.930176,471.892120 1009.601379,485.558563 998.998657,496.977112 
z" data-index="1" style="opacity: 1;"></path>
<path fill="#000000" opacity="1.000000" stroke="none" d="
M326.000000,494.892517 
	C349.491974,494.896545 372.485321,494.767212 395.474792,495.009216 
	C400.527435,495.062378 402.135010,493.567719 401.977509,488.485657 
	C401.631836,477.333893 401.993835,466.162079 401.836731,455.001648 
	C401.778748,450.884216 403.319183,449.561981 407.423859,449.563416 
	C421.297333,449.568207 421.286469,449.430420 421.281799,463.165436 
	C421.271576,493.321564 421.176392,523.478271 421.367371,553.633179 
	C421.398682,558.576660 420.076233,560.445618 414.911652,560.264465 
	C399.976501,559.740845 402.030792,562.396057 401.908569,547.276855 
	C401.833130,537.947449 401.801514,528.615540 401.938141,519.287537 
	C401.990265,515.727051 400.846344,514.273254 397.053864,514.281799 
	C351.236786,514.384644 305.419281,514.399963 259.602234,514.289490 
	C255.297791,514.279175 254.218842,515.957764 254.284637,519.931885 
	C254.477692,531.591370 254.247040,543.257690 254.430267,554.917480 
	C254.490677,558.761902 253.236740,560.306702 249.291718,560.232056 
	C232.676575,559.917847 235.753128,562.054565 235.640930,546.983582 
	C235.409027,515.831665 235.492294,484.677460 235.312851,453.524963 
	C235.294601,450.358337 236.368103,449.408997 239.356476,449.571716 
	C242.844849,449.761658 246.362198,449.786804 249.847244,449.568542 
	C253.430145,449.344116 254.433578,450.936829 254.399277,454.285858 
	C254.279907,465.947113 254.538696,477.614166 254.287476,489.271149 
	C254.192291,493.688385 255.676544,495.004517 260.023865,494.969269 
	C281.847992,494.792236 303.674408,494.890900 326.000000,494.892517 
z" data-index="2"></path>
<path fill="#000000" opacity="1.000000" stroke="none" d="
M742.000000,468.991364 
	C711.835693,468.985748 682.171448,468.964203 652.507141,468.981720 
	C641.120361,468.988434 636.419495,473.651459 636.399170,485.079193 
	C636.357971,508.243866 636.293762,531.409729 636.511658,554.572571 
	C636.553101,558.973083 635.285034,560.310059 630.886841,560.281921 
	C617.577942,560.196777 617.585266,560.367981 617.591003,546.896851 
	C617.600220,525.398560 617.544373,503.900146 617.614380,482.402130 
	C617.679504,462.405243 630.562805,449.623962 650.534729,449.621765 
	C690.031555,449.617401 729.528381,449.609955 769.025208,449.644196 
	C790.363342,449.662689 803.278442,462.595215 803.295288,483.903137 
	C803.313721,507.234589 803.192749,530.566895 803.380005,553.896851 
	C803.417603,558.583008 802.108643,560.406128 797.197754,560.265869 
	C781.610229,559.820740 783.855347,562.171509 783.784180,547.147339 
	C783.683899,525.982849 783.780151,504.817474 783.736267,483.652588 
	C783.715576,473.671906 779.040649,469.033051 768.997681,468.975220 
	C760.165466,468.924347 751.332581,468.981506 742.000000,468.991364 
z" data-index="3"></path>
<path fill="#000000" opacity="1.000000" stroke="none" d="
M209.467194,468.578430 
	C183.541229,468.819763 158.050034,468.910980 132.558853,468.999969 
	C131.392426,469.004059 130.225922,468.980591 129.059479,468.983856 
	C122.093758,469.003387 122.023010,469.056000 122.023010,475.882355 
	C122.023018,501.378143 122.046371,526.873901 122.038322,552.369690 
	C122.035858,560.180237 122.002167,560.245056 114.320396,560.190918 
	C100.457092,560.093140 102.747826,561.560852 102.690666,548.531494 
	C102.583923,524.202576 102.668739,499.872955 102.651817,475.543610 
	C102.647270,469.011292 102.610764,468.987610 95.876572,468.986816 
	C70.547409,468.983887 45.218243,469.006409 19.889086,468.999817 
	C12.995940,468.998016 12.824718,468.798767 12.816606,462.076172 
	C12.801549,449.600159 12.801550,449.586761 25.149015,449.587860 
	C85.472443,449.593262 145.795975,449.652344 206.119080,449.520111 
	C210.439636,449.510620 211.899323,450.948059 211.320755,454.945221 
	C210.672745,459.422150 212.822311,464.192749 209.467194,468.578430 
z" data-index="4"></path>
<path fill="#000000" opacity="1.000000" stroke="none" d="
M456.326172,358.737305 
	C487.784760,358.728973 518.774597,358.695984 549.764282,358.748077 
	C561.559204,358.767883 569.353027,363.872375 572.361328,373.272217 
	C577.432373,389.116821 567.552307,402.412170 550.089355,403.030212 
	C543.266357,403.271698 536.427856,403.169006 529.597961,403.089722 
	C524.927307,403.035492 521.624512,404.670654 519.975281,409.345428 
	C519.061890,411.934387 511.919891,413.466766 508.402374,411.922424 
	C505.017120,410.436127 506.688293,407.518799 507.168396,405.380585 
	C509.165466,396.487091 517.388672,389.953369 526.788940,389.728790 
	C534.448914,389.545776 542.116882,389.726685 549.780151,389.642365 
	C556.247314,389.571259 560.462524,386.015350 560.417847,380.853973 
	C560.371582,375.512726 556.429138,372.234192 549.772034,372.226593 
	C519.115479,372.191620 488.458984,372.205811 457.802460,372.196869 
	C455.099060,372.196075 451.786621,372.404419 452.241974,368.468384 
	C452.635468,365.066650 449.563385,360.037415 456.326172,358.737305 
z" data-index="5"></path>
<path fill="#000000" opacity="1.000000" stroke="none" d="
M519.302856,421.430908 
	C519.454956,423.767395 519.190918,425.772125 519.448059,427.707642 
	C520.019287,432.007477 518.514832,433.555878 514.029419,433.388306 
	C506.368927,433.102020 503.965790,430.001831 506.314117,422.566345 
	C506.769287,421.125031 507.594238,420.102325 509.027039,420.108978 
	C512.410889,420.124695 515.938843,418.912506 519.302856,421.430908 
z" data-index="6"></path>
</svg>